<svg xmlns="http://www.w3.org/2000/svg" xmlns:xlink="http://www.w3.org/1999/xlink" version="1.1" x="0px" y="0px" viewBox="0 0 5 6.25" enable-background="new 0 0 5 5" xml:space="preserve"><g><path d="M2.331,4.349c0,0-0.058-0.004-0.141-0.027C2.148,4.31,2.101,4.293,2.051,4.269c-0.685-0.5,0.12-1.304,0.417-1.828   C2.275,3,1.699,3.769,2.211,4.29C2.28,4.331,2.331,4.349,2.331,4.349z"/><path d="M2.911,4.311c0,0-0.126,0.031-0.291,0.012C2.566,4.316,2.507,4.304,2.447,4.284C1.804,3.874,2.363,3,2.468,2.441   C2.45,3.018,2.101,3.839,2.647,4.251C2.696,4.272,2.741,4.285,2.78,4.294C2.859,4.311,2.911,4.311,2.911,4.311z"/><path d="M3.452,4.095c0,0-0.049,0.03-0.13,0.061C3.281,4.17,3.233,4.186,3.179,4.196C2.223,4.293,2.502,3.035,2.468,2.441   c0.157,0.577,0.018,1.66,0.854,1.678C3.401,4.111,3.452,4.095,3.452,4.095z"/><path d="M3.898,3.722c0,0-0.084,0.1-0.228,0.181C3.623,3.93,3.568,3.955,3.507,3.973c-0.812,0.11-0.794-0.991-1.039-1.515   c0.332,0.506,0.507,1.573,1.315,1.327C3.856,3.753,3.898,3.722,3.898,3.722z"/><path d="M4.208,3.229c0,0-0.049,0.121-0.161,0.243C4.01,3.513,3.966,3.553,3.915,3.59c-0.748,0.354-1.08-0.677-1.447-1.149   c0.437,0.402,0.944,1.346,1.65,0.885C4.178,3.272,4.208,3.229,4.208,3.229z"/><path d="M4.35,2.665c0,0-0.004,0.058-0.027,0.141C4.268,3.192,3.848,3.419,3.499,3.227C3.114,3,2.817,2.72,2.485,2.441   c0.542,0.227,1.276,0.961,1.807,0.343C4.333,2.715,4.35,2.665,4.35,2.665z"/><path d="M4.31,2.084C4.407,2.406,4.233,2.825,3.866,2.86c-0.104,0-0.209,0-0.314-0.018C3.167,2.738,2.835,2.563,2.468,2.441   c0.577,0.07,1.555,0.542,1.825-0.225C4.31,2.137,4.31,2.084,4.31,2.084z"/><path d="M4.092,1.545C4.32,1.882,4.233,2.458,3.761,2.511c-0.437,0.053-0.857-0.035-1.293-0.07c0.577-0.07,1.678,0.087,1.647-0.765   C4.107,1.596,4.092,1.545,4.092,1.545z"/><path d="M3.717,1.101C3.953,1.305,4.11,1.707,3.866,1.969C3.517,2.371,2.957,2.336,2.468,2.441   c0.524-0.245,1.468-0.455,1.306-1.218C3.748,1.144,3.717,1.101,3.717,1.101z"/><path d="M3.225,0.792c0.344,0.111,0.537,0.531,0.327,0.863C3.289,2.056,2.853,2.213,2.468,2.423   c0.489-0.332,1.223-0.874,0.851-1.537C3.267,0.824,3.225,0.792,3.225,0.792z"/><path d="M2.66,0.651c0,0,0.058,0.004,0.141,0.027c0.042,0.011,0.089,0.027,0.14,0.05C3.359,0.885,3.359,1.41,3.132,1.742   c-0.192,0.28-0.437,0.472-0.664,0.699C2.853,1.986,3.412,1.2,2.78,0.707C2.71,0.667,2.66,0.651,2.66,0.651z"/><path d="M2.08,0.692c0,0,0.126-0.032,0.291-0.014c0.055,0.006,0.114,0.019,0.174,0.039c0.675,0.377,0.273,1.234-0.076,1.723   C2.73,1.899,2.975,0.956,2.211,0.708C2.132,0.692,2.08,0.692,2.08,0.692z"/><path d="M1.541,0.912c0,0,0.11-0.069,0.272-0.103c0.054-0.011,0.114-0.018,0.177-0.018C2.415,0.815,2.66,1.27,2.625,1.654   C2.59,1.917,2.52,2.179,2.468,2.441c0.035-0.577,0.087-1.416-0.664-1.556c-0.053,0-0.087,0-0.134,0.001   C1.591,0.895,1.541,0.912,1.541,0.912z"/><path d="M1.096,1.287c0,0,0.083-0.1,0.226-0.182c0.048-0.027,0.103-0.052,0.164-0.071c0.79-0.131,0.947,0.83,0.982,1.407   c-0.21-0.542-0.49-1.434-1.256-1.218C1.138,1.255,1.096,1.287,1.096,1.287z"/><path d="M0.789,1.781c0,0,0.048-0.121,0.159-0.244C0.985,1.497,1.03,1.457,1.082,1.42c0.687-0.36,1.053,0.566,1.386,1.003   c-0.437-0.332-0.821-1.049-1.473-0.82C0.947,1.629,0.909,1.658,0.879,1.685C0.82,1.738,0.789,1.781,0.789,1.781z"/><path d="M0.65,2.346c0,0,0.009-0.13,0.076-0.281c0.022-0.05,0.052-0.103,0.089-0.154c0.551-0.554,1.163,0.25,1.652,0.512   C1.926,2.318,1.332,1.689,0.787,2.112c-0.034,0.041-0.061,0.08-0.081,0.114C0.666,2.296,0.65,2.346,0.65,2.346z"/><path d="M0.694,2.926c0,0-0.032-0.126-0.015-0.29c0.005-0.055,0.017-0.114,0.037-0.174c0.353-0.668,1.209-0.109,1.751-0.021   c-0.56,0.018-1.346-0.332-1.716,0.221C0.732,2.71,0.718,2.756,0.709,2.795C0.693,2.874,0.694,2.926,0.694,2.926z"/><path d="M0.915,3.465c0,0-0.07-0.11-0.104-0.271C0.799,3.14,0.792,3.08,0.792,3.017C0.93,2.283,1.908,2.511,2.468,2.441   C1.926,2.598,0.895,2.563,0.889,3.335C0.897,3.416,0.915,3.465,0.915,3.465z"/><path d="M1.291,3.909c0,0-0.045-0.037-0.099-0.104C1.165,3.771,1.135,3.73,1.108,3.683C0.86,3.315,1.157,2.93,1.506,2.791   c0.314-0.123,0.629-0.245,0.961-0.35c-0.49,0.314-1.451,0.611-1.24,1.352C1.259,3.866,1.291,3.909,1.291,3.909z"/><path d="M1.786,4.213c-0.42-0.13-0.594-0.671-0.262-0.986C1.821,2.93,2.135,2.703,2.45,2.441C2.135,2.93,1.314,3.489,1.692,4.119   C1.744,4.182,1.786,4.213,1.786,4.213z"/></g><text x="0" y="20" fill="#000000" font-size="5px" font-weight="bold" font-family="'Helvetica Neue', Helvetica, Arial-Unicode, Arial, Sans-serif">Created by Alice Noir</text><text x="0" y="25" fill="#000000" font-size="5px" font-weight="bold" font-family="'Helvetica Neue', Helvetica, Arial-Unicode, Arial, Sans-serif">from the Noun Project</text></svg>