<svg xmlns="http://www.w3.org/2000/svg" xmlns:xlink="http://www.w3.org/1999/xlink" version="1.1" x="0px" y="0px" viewBox="0 0 100 125" enable-background="new 0 0 100 100" xml:space="preserve"><path d="M85.081,50.887c-1.871,0-3.391,1.026-3.547,2.436c-0.143,1.409,1.143,2.722,2.962,3.118  c-0.097,0.572-0.221,1.15-0.357,1.715c-1.825-0.383-3.54,0.292-3.989,1.65c-0.435,1.338,0.559,2.904,2.261,3.67  c-0.221,0.539-0.461,1.072-0.715,1.598c-1.708-0.747-3.527-0.442-4.235,0.786c-0.714,1.221-0.065,2.956,1.442,4.054  c-0.338,0.481-0.682,0.961-1.033,1.416c-1.52-1.085-3.358-1.162-4.313-0.11c-0.935,1.052-0.669,2.878,0.565,4.274  c-0.429,0.396-0.858,0.786-1.306,1.17c-1.241-1.377-3.033-1.838-4.177-1.007c-1.143,0.831-1.267,2.676-0.338,4.294  c-0.5,0.305-1.001,0.597-1.52,0.883c-0.935-1.617-2.585-2.436-3.884-1.864c-1.299,0.584-1.787,2.358-1.221,4.131  c-0.552,0.195-1.104,0.377-1.669,0.546c-0.585-1.773-2.027-2.923-3.41-2.631c-1.39,0.299-2.241,1.936-2.059,3.787  c-0.572,0.078-1.156,0.136-1.741,0.182c-0.201-1.858-1.377-3.268-2.793-3.268c-1.423,0-2.598,1.41-2.8,3.268  c-0.585-0.046-1.169-0.104-1.741-0.182c0.189-1.852-0.676-3.488-2.046-3.787c-1.39-0.292-2.839,0.858-3.423,2.631  c-0.565-0.169-1.117-0.35-1.67-0.546c0.572-1.773,0.078-3.547-1.228-4.131c-1.286-0.572-2.936,0.247-3.878,1.864  c-0.513-0.286-1.02-0.578-1.52-0.883c0.929-1.618,0.812-3.462-0.338-4.294c-1.143-0.831-2.93-0.37-4.183,1.007  c-0.442-0.383-0.877-0.773-1.306-1.17c1.241-1.396,1.514-3.222,0.565-4.274s-2.787-0.975-4.3,0.11  c-0.357-0.455-0.702-0.935-1.039-1.416c1.507-1.098,2.156-2.832,1.442-4.054c-0.708-1.228-2.533-1.533-4.242-0.786  c-0.247-0.527-0.487-1.059-0.708-1.598c1.695-0.766,2.696-2.332,2.254-3.67c-0.435-1.358-2.157-2.033-3.982-1.65  c-0.137-0.565-0.253-1.143-0.357-1.715c1.819-0.396,3.105-1.708,2.962-3.118c-0.149-1.409-1.676-2.436-3.547-2.436  c-0.007-0.292-0.013-0.585-0.013-0.883c0-0.293,0.006-0.591,0.013-0.884c1.871,0,3.397-1.02,3.547-2.429  c0.143-1.416-1.143-2.728-2.962-3.125c0.104-0.578,0.221-1.15,0.357-1.715c1.825,0.383,3.547-0.299,3.982-1.65  c0.442-1.344-0.559-2.903-2.254-3.67c0.221-0.539,0.461-1.078,0.708-1.605c1.708,0.747,3.534,0.448,4.242-0.779  c0.714-1.227,0.065-2.955-1.442-4.053c0.338-0.481,0.682-0.961,1.039-1.423c1.514,1.091,3.352,1.169,4.3,0.117  c0.948-1.059,0.676-2.878-0.565-4.268c0.429-0.403,0.864-0.793,1.306-1.176c1.254,1.384,3.04,1.838,4.183,1.007  c1.15-0.838,1.267-2.676,0.338-4.294c0.5-0.305,1.007-0.597,1.52-0.877c0.942,1.611,2.592,2.429,3.878,1.857  c1.306-0.578,1.799-2.358,1.228-4.131c0.552-0.195,1.104-0.377,1.67-0.546c0.585,1.773,2.033,2.923,3.423,2.631  c1.377-0.299,2.235-1.929,2.046-3.787c0.572-0.084,1.156-0.143,1.741-0.182c0.201,1.851,1.377,3.267,2.8,3.267  c1.416,0,2.592-1.416,2.793-3.267c0.585,0.039,1.169,0.098,1.741,0.182c-0.182,1.857,0.669,3.488,2.059,3.787  c1.383,0.293,2.826-0.857,3.41-2.631c0.565,0.169,1.117,0.351,1.669,0.546c-0.565,1.773-0.078,3.553,1.221,4.131  c1.299,0.572,2.949-0.247,3.884-1.857c0.52,0.279,1.02,0.571,1.52,0.877c-0.929,1.618-0.806,3.456,0.338,4.294  c1.143,0.831,2.936,0.377,4.177-1.007c0.448,0.383,0.877,0.773,1.306,1.176c-1.234,1.39-1.501,3.209-0.565,4.268  c0.955,1.052,2.793,0.974,4.313-0.117c0.351,0.461,0.695,0.942,1.033,1.423c-1.507,1.098-2.157,2.826-1.442,4.053  c0.708,1.228,2.527,1.527,4.235,0.779c0.253,0.527,0.494,1.065,0.715,1.605c-1.702,0.767-2.696,2.326-2.261,3.67  c0.448,1.351,2.163,2.033,3.989,1.65c0.136,0.565,0.26,1.137,0.357,1.715c-1.819,0.396-3.105,1.708-2.962,3.125  c0.156,1.409,1.676,2.429,3.547,2.429c0.007,0.293,0.013,0.591,0.013,0.884C85.094,50.302,85.087,50.595,85.081,50.887   M94.987,51.133C95,50.763,95,50.386,95,50.003c0-0.377,0-0.754-0.013-1.13c-2.397,0-4.359-1.312-4.541-3.118  c-0.195-1.819,1.455-3.501,3.793-4.002c-0.13-0.747-0.286-1.481-0.461-2.202c-2.339,0.487-4.547-0.383-5.106-2.118  c-0.559-1.721,0.714-3.722,2.891-4.703c-0.286-0.695-0.591-1.384-0.922-2.059c-2.176,0.961-4.521,0.578-5.424-1  c-0.916-1.572-0.084-3.793,1.845-5.197c-0.429-0.617-0.87-1.234-1.325-1.825c-1.942,1.396-4.3,1.5-5.522,0.149  c-1.208-1.358-0.87-3.69,0.721-5.469c-0.546-0.513-1.104-1.02-1.669-1.513c-1.605,1.773-3.904,2.358-5.359,1.293  c-1.474-1.072-1.624-3.43-0.435-5.509c-0.643-0.383-1.286-0.766-1.949-1.124c-1.208,2.066-3.326,3.118-4.982,2.378  c-1.663-0.728-2.299-3.014-1.572-5.294c-0.702-0.247-1.416-0.481-2.137-0.702c-0.747,2.28-2.605,3.755-4.378,3.378  c-1.773-0.383-2.871-2.475-2.631-4.859c-0.74-0.104-1.488-0.182-2.241-0.234c-0.253,2.377-1.76,4.19-3.579,4.19  c-1.825,0-3.332-1.812-3.586-4.19c-0.754,0.052-1.5,0.13-2.235,0.234c0.234,2.384-0.857,4.475-2.624,4.859  c-1.786,0.377-3.644-1.098-4.391-3.378C36.44,7.079,35.732,7.313,35.03,7.56c0.728,2.28,0.091,4.567-1.572,5.294  c-1.656,0.74-3.774-0.312-4.982-2.378c-0.656,0.357-1.306,0.741-1.942,1.124c1.182,2.079,1.033,4.437-0.435,5.509  c-1.468,1.065-3.761,0.481-5.365-1.293c-0.565,0.494-1.124,1-1.676,1.513c1.598,1.78,1.942,4.112,0.728,5.469  c-1.221,1.351-3.573,1.247-5.521-0.149c-0.455,0.591-0.89,1.208-1.319,1.825c1.923,1.403,2.754,3.625,1.838,5.197  c-0.903,1.578-3.248,1.962-5.437,1c-0.318,0.676-0.624,1.364-0.903,2.059c2.176,0.981,3.449,2.981,2.891,4.703  c-0.565,1.734-2.774,2.605-5.112,2.118c-0.175,0.721-0.325,1.455-0.461,2.202c2.332,0.5,3.989,2.183,3.8,4.002  c-0.189,1.806-2.15,3.118-4.541,3.118C5,49.25,5,49.626,5,50.003c0,0.383,0,0.76,0.02,1.13c2.39,0.007,4.352,1.325,4.541,3.125  c0.188,1.806-1.468,3.488-3.8,3.995c0.136,0.741,0.286,1.475,0.461,2.202c2.338-0.487,4.547,0.383,5.112,2.111  c0.559,1.728-0.714,3.729-2.891,4.71c0.279,0.695,0.585,1.377,0.903,2.059c2.189-0.961,4.534-0.571,5.437,1.001  c0.916,1.572,0.084,3.787-1.838,5.203c0.429,0.611,0.864,1.228,1.319,1.812c1.949-1.39,4.3-1.494,5.521-0.143  c1.215,1.358,0.87,3.69-0.728,5.482c0.552,0.507,1.111,1.007,1.676,1.494c1.604-1.76,3.897-2.351,5.365-1.286  c1.468,1.065,1.617,3.43,0.435,5.509c0.637,0.39,1.286,0.766,1.942,1.124c1.208-2.066,3.326-3.118,4.982-2.384  c1.663,0.747,2.3,3.027,1.572,5.301c0.702,0.253,1.41,0.481,2.137,0.695c0.747-2.274,2.605-3.748,4.391-3.371  c1.76,0.383,2.858,2.481,2.624,4.852c0.734,0.111,1.481,0.182,2.235,0.234c0.253-2.377,1.76-4.19,3.586-4.19  c1.819,0,3.326,1.812,3.579,4.19c0.754-0.052,1.501-0.123,2.241-0.234c-0.24-2.371,0.858-4.469,2.631-4.852  c1.773-0.377,3.631,1.097,4.378,3.371c0.721-0.214,1.436-0.442,2.137-0.695c-0.728-2.274-0.091-4.554,1.572-5.301  c1.656-0.734,3.774,0.318,4.982,2.384c0.663-0.357,1.306-0.734,1.949-1.124c-1.189-2.079-1.039-4.443,0.435-5.509  c1.468-1.065,3.755-0.474,5.359,1.286c0.565-0.487,1.124-0.987,1.669-1.494c-1.591-1.793-1.929-4.125-0.721-5.482  c1.221-1.351,3.579-1.247,5.522,0.143c0.455-0.584,0.896-1.202,1.325-1.812c-1.929-1.416-2.761-3.631-1.845-5.203  c0.903-1.572,3.248-1.962,5.424-1.001c0.331-0.682,0.637-1.364,0.922-2.059c-2.176-0.981-3.449-2.982-2.891-4.71  c0.559-1.728,2.767-2.598,5.106-2.111c0.175-0.728,0.331-1.462,0.461-2.202c-2.338-0.507-3.988-2.189-3.793-3.995  C90.628,52.459,92.59,51.14,94.987,51.133"/><path d="M70.907,50.526c-1.111,0-2.02,0.611-2.111,1.448c-0.084,0.844,0.682,1.624,1.767,1.864c-0.065,0.345-0.136,0.682-0.221,1.02  c-1.078-0.228-2.105,0.175-2.371,0.981c-0.253,0.805,0.331,1.734,1.345,2.189c-0.13,0.325-0.273,0.643-0.422,0.955  c-1.02-0.442-2.098-0.266-2.533,0.468c-0.416,0.728-0.033,1.76,0.87,2.417c-0.201,0.286-0.409,0.572-0.624,0.844  c-0.903-0.643-2.001-0.695-2.566-0.065c-0.559,0.63-0.403,1.708,0.338,2.547c-0.253,0.234-0.52,0.467-0.779,0.695  c-0.741-0.819-1.806-1.098-2.488-0.604c-0.689,0.5-0.754,1.598-0.201,2.566c-0.305,0.182-0.598,0.357-0.903,0.526  c-0.559-0.968-1.552-1.455-2.319-1.111c-0.773,0.344-1.072,1.403-0.728,2.462c-0.325,0.117-0.663,0.227-0.994,0.325  c-0.351-1.059-1.215-1.747-2.04-1.572c-0.825,0.182-1.332,1.156-1.221,2.261c-0.344,0.052-0.689,0.078-1.046,0.11  c-0.11-1.111-0.812-1.949-1.656-1.949c-0.851,0-1.552,0.838-1.663,1.949c-0.357-0.033-0.702-0.058-1.046-0.11  c0.11-1.105-0.396-2.079-1.221-2.261c-0.825-0.175-1.689,0.513-2.04,1.572c-0.331-0.098-0.663-0.208-0.994-0.325  c0.344-1.059,0.045-2.118-0.728-2.462c-0.773-0.344-1.754,0.143-2.312,1.111c-0.312-0.169-0.611-0.345-0.903-0.526  c0.546-0.968,0.474-2.066-0.208-2.566c-0.682-0.494-1.747-0.214-2.494,0.604c-0.26-0.228-0.52-0.462-0.779-0.695  c0.747-0.838,0.903-1.917,0.338-2.547c-0.559-0.63-1.656-0.578-2.566,0.065c-0.208-0.273-0.409-0.559-0.611-0.844  c0.896-0.656,1.28-1.689,0.857-2.417c-0.422-0.734-1.514-0.91-2.527-0.468c-0.149-0.312-0.292-0.63-0.422-0.955  c1.007-0.455,1.605-1.384,1.345-2.189c-0.266-0.806-1.293-1.208-2.377-0.981c-0.078-0.338-0.156-0.676-0.214-1.02  c1.085-0.24,1.851-1.02,1.767-1.864c-0.091-0.838-1-1.448-2.111-1.448c-0.007-0.176-0.007-0.351-0.007-0.527  c0-0.175,0-0.35,0.007-0.526c1.111,0,2.02-0.611,2.111-1.448c0.084-0.844-0.682-1.624-1.767-1.858  c0.058-0.345,0.136-0.689,0.214-1.026c1.085,0.228,2.111-0.175,2.377-0.981c0.26-0.805-0.338-1.734-1.345-2.189  c0.13-0.318,0.273-0.643,0.422-0.955c1.013,0.442,2.105,0.266,2.527-0.461c0.422-0.734,0.039-1.767-0.857-2.417  c0.201-0.292,0.403-0.578,0.611-0.851c0.909,0.643,2.007,0.695,2.566,0.065c0.565-0.63,0.409-1.708-0.338-2.54  c0.26-0.241,0.52-0.474,0.779-0.702c0.747,0.825,1.812,1.098,2.494,0.604c0.682-0.5,0.754-1.598,0.208-2.566  c0.292-0.175,0.591-0.357,0.903-0.526c0.559,0.968,1.54,1.455,2.312,1.117c0.773-0.344,1.072-1.409,0.728-2.468  c0.331-0.11,0.663-0.227,0.994-0.325c0.351,1.059,1.215,1.747,2.04,1.572c0.825-0.182,1.332-1.156,1.221-2.261  c0.344-0.052,0.689-0.078,1.046-0.11c0.11,1.104,0.812,1.949,1.663,1.949c0.844,0,1.546-0.844,1.656-1.949  c0.357,0.033,0.702,0.058,1.046,0.11c-0.11,1.105,0.396,2.079,1.221,2.261c0.825,0.175,1.689-0.513,2.04-1.572  c0.331,0.098,0.669,0.214,0.994,0.325c-0.344,1.059-0.045,2.124,0.728,2.468c0.767,0.338,1.76-0.149,2.319-1.117  c0.305,0.169,0.598,0.351,0.903,0.526c-0.552,0.968-0.487,2.066,0.201,2.566c0.682,0.494,1.747,0.221,2.488-0.604  c0.26,0.228,0.526,0.461,0.779,0.702c-0.741,0.831-0.896,1.91-0.338,2.54c0.565,0.63,1.663,0.578,2.566-0.065  c0.214,0.273,0.422,0.559,0.624,0.851c-0.903,0.65-1.286,1.683-0.87,2.417c0.435,0.728,1.514,0.903,2.533,0.461  c0.149,0.312,0.292,0.637,0.422,0.955c-1.013,0.455-1.598,1.384-1.345,2.189c0.266,0.806,1.293,1.208,2.371,0.981  c0.084,0.338,0.156,0.682,0.221,1.026c-1.085,0.234-1.851,1.013-1.767,1.858c0.091,0.838,1.001,1.448,2.111,1.448  C70.92,49.649,70.92,49.825,70.92,50C70.92,50.175,70.92,50.351,70.907,50.526 M77.552,50.695c0.013-0.227,0.013-0.461,0.013-0.695  c0-0.227,0-0.461-0.013-0.688c-1.468-0.007-2.67-0.806-2.78-1.917c-0.11-1.111,0.896-2.143,2.326-2.449  c-0.078-0.455-0.175-0.903-0.286-1.345c-1.423,0.292-2.78-0.234-3.131-1.299c-0.331-1.059,0.448-2.286,1.773-2.884  c-0.162-0.422-0.357-0.844-0.559-1.26c-1.338,0.591-2.761,0.351-3.319-0.611c-0.559-0.968-0.058-2.325,1.13-3.183  c-0.266-0.383-0.533-0.76-0.819-1.117c-1.189,0.851-2.631,0.916-3.378,0.084c-0.747-0.825-0.533-2.254,0.435-3.345  c-0.331-0.318-0.669-0.624-1.02-0.929c-0.981,1.091-2.384,1.442-3.28,0.793c-0.903-0.656-0.994-2.098-0.266-3.378  c-0.39-0.234-0.786-0.468-1.195-0.682c-0.741,1.267-2.033,1.91-3.053,1.455c-1.02-0.448-1.41-1.845-0.961-3.241  c-0.429-0.149-0.864-0.299-1.306-0.429c-0.461,1.39-1.598,2.3-2.683,2.066c-1.091-0.234-1.761-1.513-1.618-2.975  c-0.448-0.065-0.909-0.111-1.371-0.143c-0.149,1.455-1.078,2.572-2.189,2.572c-1.117,0-2.04-1.117-2.195-2.572  c-0.461,0.033-0.922,0.078-1.371,0.143c0.143,1.461-0.526,2.741-1.611,2.975c-1.091,0.234-2.228-0.676-2.689-2.066  c-0.442,0.13-0.877,0.28-1.306,0.429c0.442,1.396,0.058,2.793-0.968,3.241c-1.013,0.455-2.306-0.188-3.047-1.455  c-0.403,0.214-0.799,0.448-1.189,0.682c0.721,1.279,0.63,2.721-0.266,3.378c-0.903,0.65-2.306,0.299-3.287-0.793  c-0.344,0.305-0.689,0.611-1.026,0.929c0.975,1.091,1.189,2.52,0.442,3.345c-0.741,0.831-2.189,0.766-3.378-0.084  c-0.279,0.357-0.552,0.734-0.812,1.117c1.182,0.858,1.689,2.215,1.13,3.183c-0.559,0.961-1.988,1.202-3.332,0.611  c-0.195,0.416-0.383,0.838-0.552,1.26c1.325,0.597,2.111,1.825,1.767,2.884c-0.344,1.065-1.696,1.591-3.131,1.299  c-0.104,0.442-0.201,0.89-0.279,1.345c1.429,0.305,2.442,1.338,2.326,2.449c-0.117,1.111-1.319,1.91-2.787,1.917  c-0.007,0.227-0.007,0.461-0.007,0.688c0,0.234,0,0.468,0.007,0.695c1.468,0,2.67,0.806,2.787,1.91  c0.117,1.111-0.896,2.144-2.326,2.456c0.078,0.448,0.175,0.896,0.279,1.344c1.436-0.299,2.787,0.234,3.131,1.293  c0.344,1.059-0.442,2.287-1.767,2.884c0.169,0.422,0.357,0.844,0.552,1.26c1.345-0.591,2.774-0.35,3.332,0.611  c0.559,0.968,0.052,2.325-1.13,3.189c0.26,0.377,0.533,0.754,0.812,1.111c1.189-0.851,2.637-0.916,3.378-0.084  c0.747,0.825,0.533,2.254-0.442,3.352c0.338,0.312,0.682,0.617,1.026,0.922c0.981-1.078,2.384-1.442,3.287-0.792  c0.896,0.656,0.987,2.098,0.266,3.378c0.39,0.234,0.786,0.468,1.189,0.689c0.741-1.273,2.033-1.916,3.047-1.461  c1.026,0.454,1.409,1.851,0.968,3.241c0.429,0.156,0.864,0.299,1.306,0.429c0.461-1.39,1.598-2.293,2.689-2.066  c1.078,0.234,1.754,1.52,1.611,2.975c0.448,0.065,0.909,0.111,1.371,0.143c0.156-1.462,1.078-2.566,2.195-2.566  c1.111,0,2.04,1.104,2.189,2.566c0.461-0.033,0.922-0.078,1.371-0.143c-0.143-1.455,0.526-2.741,1.618-2.975  c1.085-0.227,2.221,0.676,2.683,2.066c0.442-0.13,0.877-0.273,1.306-0.429c-0.448-1.39-0.058-2.787,0.961-3.241  c1.02-0.455,2.312,0.188,3.053,1.461c0.409-0.221,0.805-0.455,1.195-0.689c-0.728-1.279-0.637-2.722,0.266-3.378  c0.896-0.65,2.3-0.286,3.28,0.792c0.351-0.305,0.689-0.611,1.02-0.922c-0.968-1.098-1.182-2.527-0.435-3.352  c0.747-0.831,2.189-0.767,3.378,0.084c0.286-0.357,0.552-0.734,0.819-1.111c-1.189-0.864-1.689-2.221-1.13-3.189  c0.559-0.961,1.981-1.202,3.319-0.611c0.201-0.416,0.396-0.838,0.559-1.26c-1.325-0.597-2.104-1.825-1.773-2.884  c0.351-1.059,1.708-1.591,3.131-1.293c0.11-0.448,0.208-0.896,0.286-1.344c-1.429-0.312-2.436-1.345-2.326-2.456  C74.882,51.5,76.084,50.695,77.552,50.695"/><path d="M59.546,50.24c-0.507,0-0.922,0.28-0.961,0.663c-0.045,0.383,0.305,0.74,0.806,0.844c-0.026,0.156-0.065,0.318-0.104,0.467  c-0.494-0.104-0.961,0.084-1.078,0.448c-0.124,0.37,0.149,0.793,0.611,1c-0.052,0.149-0.123,0.292-0.195,0.435  c-0.461-0.201-0.955-0.124-1.15,0.214c-0.195,0.338-0.019,0.806,0.39,1.104c-0.091,0.13-0.182,0.26-0.286,0.383  c-0.403-0.292-0.909-0.312-1.163-0.026c-0.26,0.285-0.188,0.779,0.149,1.156c-0.117,0.11-0.234,0.214-0.357,0.325  c-0.338-0.377-0.825-0.5-1.137-0.279c-0.305,0.227-0.338,0.728-0.091,1.169c-0.13,0.084-0.273,0.162-0.416,0.24  c-0.253-0.435-0.702-0.663-1.052-0.507c-0.351,0.163-0.487,0.643-0.331,1.124c-0.149,0.059-0.305,0.104-0.455,0.149  c-0.162-0.487-0.552-0.793-0.929-0.714c-0.377,0.078-0.611,0.526-0.559,1.026c-0.156,0.026-0.318,0.039-0.481,0.052  c-0.052-0.507-0.364-0.89-0.754-0.89c-0.383,0-0.708,0.383-0.76,0.89c-0.162-0.013-0.318-0.026-0.474-0.052  c0.052-0.5-0.182-0.948-0.559-1.026s-0.773,0.227-0.935,0.714c-0.149-0.045-0.299-0.091-0.448-0.149  c0.156-0.481,0.02-0.961-0.338-1.124c-0.351-0.156-0.799,0.071-1.052,0.507c-0.136-0.078-0.279-0.156-0.409-0.24  c0.247-0.442,0.214-0.942-0.098-1.169c-0.312-0.221-0.793-0.098-1.137,0.279c-0.117-0.11-0.24-0.214-0.357-0.325  c0.344-0.377,0.409-0.871,0.156-1.156c-0.26-0.286-0.76-0.266-1.169,0.026c-0.098-0.123-0.189-0.253-0.279-0.383  c0.403-0.299,0.585-0.766,0.39-1.104c-0.195-0.338-0.689-0.416-1.156-0.214c-0.065-0.143-0.136-0.286-0.195-0.435  c0.461-0.208,0.734-0.63,0.617-1c-0.117-0.364-0.591-0.552-1.085-0.448c-0.039-0.149-0.072-0.312-0.098-0.467  c0.494-0.104,0.844-0.461,0.805-0.844c-0.039-0.383-0.455-0.663-0.968-0.663c0-0.078,0-0.162,0-0.24c0-0.078,0-0.156,0-0.24  c0.513,0,0.929-0.279,0.968-0.663c0.039-0.383-0.312-0.741-0.805-0.844c0.026-0.163,0.058-0.318,0.098-0.468  c0.494,0.104,0.968-0.084,1.085-0.448c0.117-0.37-0.156-0.793-0.617-1c0.058-0.149,0.13-0.293,0.195-0.435  c0.468,0.201,0.961,0.123,1.156-0.214c0.195-0.338,0.013-0.805-0.39-1.104c0.091-0.13,0.182-0.26,0.279-0.383  c0.409,0.293,0.909,0.312,1.169,0.026c0.253-0.286,0.188-0.779-0.156-1.157c0.117-0.11,0.24-0.221,0.357-0.325  c0.344,0.377,0.825,0.5,1.137,0.28c0.312-0.228,0.344-0.728,0.098-1.169c0.13-0.084,0.273-0.163,0.409-0.241  c0.253,0.435,0.702,0.663,1.052,0.507c0.357-0.156,0.494-0.636,0.338-1.124c0.149-0.052,0.299-0.104,0.448-0.149  c0.163,0.481,0.559,0.793,0.935,0.714c0.377-0.078,0.611-0.526,0.559-1.033c0.156-0.019,0.312-0.033,0.474-0.045  c0.052,0.5,0.377,0.89,0.76,0.89c0.39,0,0.702-0.39,0.754-0.89c0.162,0.013,0.325,0.026,0.481,0.045  c-0.052,0.507,0.182,0.955,0.559,1.033c0.377,0.078,0.767-0.234,0.929-0.714c0.149,0.046,0.305,0.098,0.455,0.149  c-0.156,0.487-0.019,0.968,0.331,1.124c0.351,0.156,0.799-0.071,1.052-0.507c0.143,0.078,0.286,0.156,0.416,0.241  c-0.247,0.442-0.214,0.942,0.091,1.169c0.312,0.221,0.799,0.098,1.137-0.28c0.124,0.104,0.24,0.214,0.357,0.325  c-0.338,0.377-0.409,0.871-0.149,1.157c0.253,0.286,0.76,0.266,1.163-0.026c0.104,0.124,0.195,0.253,0.286,0.383  c-0.409,0.299-0.585,0.766-0.39,1.104c0.195,0.338,0.689,0.416,1.15,0.214c0.072,0.143,0.143,0.286,0.195,0.435  c-0.461,0.208-0.734,0.63-0.611,1c0.117,0.364,0.585,0.552,1.078,0.448c0.039,0.149,0.078,0.305,0.104,0.468  c-0.5,0.104-0.851,0.461-0.806,0.844c0.039,0.383,0.455,0.663,0.961,0.663V50V50.24z M64.911,50.376V50v-0.377  c-0.799,0-1.449-0.435-1.507-1.033c-0.065-0.597,0.481-1.156,1.254-1.325c-0.039-0.247-0.098-0.487-0.149-0.728  c-0.773,0.162-1.514-0.13-1.696-0.702c-0.175-0.572,0.24-1.234,0.961-1.559c-0.091-0.234-0.195-0.461-0.312-0.682  c-0.714,0.318-1.488,0.188-1.793-0.331c-0.305-0.52-0.026-1.254,0.617-1.721c-0.149-0.208-0.292-0.409-0.448-0.604  c-0.643,0.461-1.429,0.494-1.825,0.045c-0.396-0.448-0.286-1.221,0.234-1.812c-0.175-0.169-0.364-0.338-0.546-0.5  c-0.533,0.591-1.293,0.779-1.773,0.429c-0.494-0.351-0.546-1.137-0.156-1.825c-0.208-0.13-0.422-0.253-0.637-0.377  c-0.403,0.688-1.104,1.039-1.656,0.793c-0.546-0.241-0.76-1.001-0.513-1.754c-0.234-0.084-0.474-0.163-0.708-0.234  c-0.253,0.754-0.87,1.247-1.455,1.117c-0.591-0.123-0.948-0.818-0.87-1.605c-0.24-0.039-0.494-0.058-0.747-0.078  c-0.078,0.786-0.578,1.39-1.182,1.39c-0.604,0-1.104-0.604-1.182-1.39c-0.253,0.019-0.507,0.039-0.747,0.078  c0.078,0.786-0.286,1.481-0.87,1.605c-0.591,0.13-1.202-0.364-1.455-1.117c-0.24,0.071-0.474,0.149-0.708,0.234  c0.24,0.753,0.033,1.513-0.52,1.754c-0.552,0.247-1.254-0.104-1.65-0.793c-0.214,0.123-0.435,0.247-0.643,0.377  c0.39,0.689,0.338,1.474-0.149,1.825c-0.481,0.351-1.241,0.162-1.773-0.429c-0.188,0.162-0.37,0.331-0.559,0.5  c0.533,0.591,0.643,1.364,0.24,1.812c-0.396,0.448-1.182,0.416-1.825-0.045c-0.149,0.195-0.292,0.396-0.442,0.604  c0.637,0.468,0.916,1.202,0.617,1.721c-0.305,0.52-1.078,0.649-1.806,0.331c-0.104,0.221-0.208,0.448-0.299,0.682  c0.721,0.325,1.143,0.987,0.955,1.559c-0.182,0.572-0.916,0.864-1.689,0.702c-0.058,0.24-0.11,0.481-0.156,0.728  c0.773,0.169,1.325,0.728,1.26,1.325c-0.065,0.597-0.715,1.033-1.507,1.033c0,0.13-0.006,0.253-0.006,0.377  c0,0.124,0.006,0.253,0.006,0.377c0.793,0,1.442,0.435,1.507,1.033c0.065,0.597-0.487,1.156-1.26,1.325  c0.045,0.247,0.097,0.487,0.156,0.728c0.773-0.163,1.507,0.13,1.689,0.701c0.188,0.572-0.234,1.234-0.955,1.559  c0.091,0.234,0.195,0.461,0.299,0.682c0.728-0.318,1.501-0.195,1.806,0.331c0.299,0.52,0.019,1.254-0.617,1.721  c0.149,0.208,0.292,0.409,0.442,0.604c0.643-0.461,1.429-0.494,1.825-0.046c0.403,0.448,0.292,1.221-0.24,1.812  c0.189,0.169,0.37,0.338,0.559,0.5c0.533-0.585,1.293-0.779,1.773-0.435c0.487,0.357,0.539,1.143,0.149,1.832  c0.208,0.13,0.429,0.253,0.643,0.377c0.396-0.689,1.098-1.04,1.65-0.793c0.552,0.247,0.76,1,0.52,1.754  c0.234,0.084,0.468,0.162,0.708,0.234c0.253-0.76,0.864-1.247,1.455-1.124c0.585,0.13,0.948,0.825,0.87,1.611  c0.24,0.039,0.494,0.059,0.747,0.078c0.078-0.786,0.578-1.39,1.182-1.39c0.604,0,1.104,0.604,1.182,1.39  c0.253-0.019,0.507-0.039,0.747-0.078c-0.078-0.786,0.279-1.481,0.87-1.611c0.585-0.123,1.202,0.364,1.455,1.124  c0.234-0.071,0.474-0.149,0.708-0.234c-0.247-0.754-0.033-1.507,0.513-1.754c0.552-0.247,1.254,0.104,1.656,0.793  c0.214-0.124,0.429-0.247,0.637-0.377c-0.39-0.688-0.338-1.474,0.156-1.832c0.481-0.344,1.241-0.149,1.773,0.435  c0.182-0.163,0.37-0.331,0.546-0.5c-0.52-0.591-0.63-1.364-0.234-1.812c0.396-0.448,1.182-0.416,1.825,0.046  c0.156-0.195,0.299-0.396,0.448-0.604c-0.643-0.467-0.922-1.202-0.617-1.721c0.305-0.526,1.078-0.649,1.793-0.331  c0.117-0.221,0.221-0.448,0.312-0.682c-0.721-0.325-1.137-0.988-0.961-1.559c0.182-0.571,0.922-0.864,1.696-0.701  c0.052-0.24,0.11-0.481,0.149-0.728c-0.773-0.169-1.319-0.728-1.254-1.325C63.463,50.812,64.112,50.376,64.911,50.376"/><text x="0" y="115" fill="#000000" font-size="5px" font-weight="bold" font-family="'Helvetica Neue', Helvetica, Arial-Unicode, Arial, Sans-serif">Created by orlangiodo</text><text x="0" y="120" fill="#000000" font-size="5px" font-weight="bold" font-family="'Helvetica Neue', Helvetica, Arial-Unicode, Arial, Sans-serif">from the Noun Project</text></svg>