<svg xmlns="http://www.w3.org/2000/svg" xmlns:xlink="http://www.w3.org/1999/xlink" version="1.1" x="0px" y="0px" viewBox="0 0 5 6.25" enable-background="new 0 0 5 5" xml:space="preserve"><g><path d="M3.404,4.243c0.119-0.062,0.231-0.136,0.334-0.22c0,0-0.108-0.125-0.106-0.419C3.652,3.202,3.443,2.75,3.025,2.576   C3.408,2.854,3.478,3.375,3.4,3.8C3.364,3.949,3.363,4.06,3.368,4.136C3.387,4.206,3.404,4.243,3.404,4.243z"/><path d="M4.023,3.738c0.07-0.086,0.133-0.179,0.188-0.276c0,0-0.14-0.073-0.238-0.343C3.861,2.714,3.478,2.436,3.061,2.367   c0.417,0.174,0.73,0.522,0.796,0.978C3.904,3.635,4.023,3.738,4.023,3.738z"/><path d="M2.701,4.453C2.814,4.441,2.924,4.42,3.03,4.391c0,0-0.047-0.151,0.045-0.399c0.16-0.372,0.229-0.824-0.049-1.173   c0.14,0.418,0.07,0.905-0.194,1.244C2.69,4.295,2.701,4.453,2.701,4.453z"/><path d="M4.453,2.299C4.441,2.186,4.42,2.076,4.391,1.97c0,0-0.15,0.047-0.421-0.09C3.583,1.706,3.095,1.74,2.782,2.053   c0.522-0.313,1.114-0.104,1.562,0.23C4.414,2.301,4.453,2.299,4.453,2.299z"/><path d="M4.243,1.595c-0.062-0.119-0.136-0.231-0.22-0.334c0,0-0.032,0.027-0.1,0.055c-0.55-0.028-1.177,0.146-1.386,0.737   c0.349-0.522,1.044-0.591,1.595-0.427C4.206,1.613,4.243,1.595,4.243,1.595z"/><path d="M0.547,2.701C0.559,2.814,0.58,2.923,0.609,3.03c0,0,0.15-0.047,0.394,0.015C1.39,3.307,1.877,3.237,2.26,2.993   C1.842,3.202,1.32,3.097,0.938,2.809C0.705,2.69,0.547,2.701,0.547,2.701z"/><path d="M0.757,3.404c0.062,0.119,0.136,0.231,0.22,0.334c0,0,0.125-0.108,0.39-0.142C1.842,3.654,2.26,3.375,2.503,2.993   C2.19,3.411,1.668,3.48,1.183,3.364C0.907,3.333,0.757,3.404,0.757,3.404z"/><path d="M3.739,0.977C3.652,0.906,3.56,0.843,3.462,0.788c0,0-0.072,0.14-0.36,0.241c-0.424,0.155-0.703,0.572-0.703,0.99   C2.434,1.357,3.165,1.184,3.65,1.043C3.713,1.007,3.739,0.977,3.739,0.977z"/><path d="M1.262,4.023c0.086,0.07,0.179,0.133,0.276,0.188c0,0,0.073-0.14,0.292-0.263c0.43-0.12,0.778-0.434,0.813-0.886   C2.469,3.48,2.051,3.793,1.612,3.824C1.365,3.904,1.262,4.023,1.262,4.023z"/><path d="M1.907,4.372c0.125,0.04,0.257,0.067,0.392,0.081c0,0,0.012-0.166,0.191-0.374c0.292-0.321,0.535-0.773,0.327-1.191   c0.139,0.487-0.244,0.94-0.627,1.16C1.962,4.215,1.907,4.372,1.907,4.372z"/><path d="M4.372,3.093c0.04-0.125,0.067-0.257,0.081-0.392c0,0-0.041-0.003-0.108-0.032c-0.38-0.372-0.901-0.72-1.458-0.477   c0.452-0.069,0.904,0.174,1.172,0.562c0.08,0.143,0.154,0.239,0.212,0.288C4.333,3.079,4.372,3.093,4.372,3.093z"/><path d="M1.596,0.757c-0.119,0.062-0.231,0.136-0.334,0.22c0,0,0.027,0.031,0.062,0.092c0.024,0.073,0.054,0.179,0.06,0.328   c-0.029,0.448,0.25,0.9,0.667,1.109c-0.383-0.313-0.557-0.8-0.447-1.293c0.035-0.157,0.038-0.273,0.028-0.349   C1.614,0.794,1.596,0.757,1.596,0.757z"/><path d="M0.977,1.261C0.907,1.348,0.844,1.44,0.789,1.538c0,0,0.14,0.073,0.262,0.309C1.216,2.228,1.529,2.61,2.017,2.645   C1.564,2.541,1.216,2.088,1.167,1.636C1.096,1.365,0.977,1.261,0.977,1.261z"/><path d="M2.162,2.825C1.668,2.923,1.181,2.61,0.958,2.193C0.872,2.075,0.789,2.004,0.729,1.955C0.667,1.92,0.628,1.907,0.628,1.907   c-0.04,0.125-0.067,0.257-0.081,0.392c0,0,0.165,0.012,0.379,0.184c0.219,0.232,0.498,0.372,0.819,0.411   C1.996,2.882,2.162,2.825,2.162,2.825z"/><path d="M2.299,0.547C2.186,0.558,2.076,0.58,1.97,0.609c0,0,0.047,0.151-0.062,0.417C1.773,1.392,1.738,1.879,2.017,2.228   C1.842,1.845,1.842,1.323,2.14,0.958c0.085-0.127,0.128-0.23,0.154-0.304C2.302,0.586,2.299,0.547,2.299,0.547z"/><path d="M3.093,0.627c-0.125-0.04-0.257-0.067-0.392-0.081c0,0-0.003,0.041-0.021,0.109C2.645,0.725,2.576,0.82,2.461,0.931   C2.086,1.218,2.017,1.775,2.225,2.158c-0.174-0.626,0.348-1.114,0.812-1.43C3.079,0.667,3.093,0.627,3.093,0.627z"/></g><text x="0" y="20" fill="#000000" font-size="5px" font-weight="bold" font-family="'Helvetica Neue', Helvetica, Arial-Unicode, Arial, Sans-serif">Created by Alice Noir</text><text x="0" y="25" fill="#000000" font-size="5px" font-weight="bold" font-family="'Helvetica Neue', Helvetica, Arial-Unicode, Arial, Sans-serif">from the Noun Project</text></svg>