<svg xmlns="http://www.w3.org/2000/svg" xmlns:xlink="http://www.w3.org/1999/xlink" version="1.1" x="0px" y="0px" viewBox="0 0 5 6.25" enable-background="new 0 0 5 5" xml:space="preserve"><g><path d="M3.363,4.164c0.114-0.06,0.221-0.13,0.319-0.21L2.75,2.88L3.363,4.164z"/><path d="M3.954,3.682C4.021,3.6,4.081,3.511,4.134,3.418L2.93,2.792L3.954,3.682z"/><path d="M2.692,4.364c0.107-0.011,0.212-0.031,0.313-0.06L2.597,3.01L2.692,4.364z"/><path d="M4.364,2.308C4.353,2.201,4.333,2.096,4.305,1.994L3.011,2.403L4.364,2.308z"/><path d="M4.164,1.637c-0.059-0.113-0.129-0.22-0.21-0.319L2.881,2.25L4.164,1.637z"/><path d="M0.636,2.692c0.011,0.107,0.031,0.212,0.06,0.314L1.99,2.597L0.636,2.692z"/><path d="M0.836,3.363c0.06,0.114,0.13,0.221,0.21,0.319L2.12,2.75L0.836,3.363z"/><path d="M3.682,1.046C3.6,0.979,3.512,0.919,3.418,0.867L2.792,2.071L3.682,1.046z"/><path d="M1.318,3.954C1.4,4.021,1.489,4.081,1.582,4.133L2.208,2.93L1.318,3.954z"/><path d="M1.934,4.287c0.12,0.038,0.245,0.064,0.374,0.077l0.099-1.418L1.934,4.287z"/><path d="M4.287,3.066c0.038-0.12,0.064-0.245,0.077-0.374L2.946,2.593L4.287,3.066z"/><path d="M1.637,0.836c-0.114,0.059-0.221,0.13-0.319,0.21L2.25,2.119L1.637,0.836z"/><path d="M1.046,1.318C0.979,1.4,0.919,1.489,0.867,1.582L2.07,2.208L1.046,1.318z"/><path d="M2.054,2.408L0.713,1.934c-0.038,0.12-0.064,0.245-0.077,0.374L2.054,2.408z"/><path d="M2.308,0.636C2.201,0.647,2.096,0.667,1.994,0.695L2.403,1.99L2.308,0.636z"/><path d="M3.066,0.713c-0.12-0.038-0.245-0.064-0.374-0.077l-0.1,1.418L3.066,0.713z"/></g><text x="0" y="20" fill="#000000" font-size="5px" font-weight="bold" font-family="'Helvetica Neue', Helvetica, Arial-Unicode, Arial, Sans-serif">Created by Alice Noir</text><text x="0" y="25" fill="#000000" font-size="5px" font-weight="bold" font-family="'Helvetica Neue', Helvetica, Arial-Unicode, Arial, Sans-serif">from the Noun Project</text></svg>