<svg xmlns="http://www.w3.org/2000/svg" xmlns:xlink="http://www.w3.org/1999/xlink" version="1.1" x="0px" y="0px" viewBox="0 0 5 6.25" enable-background="new 0 0 5 5" xml:space="preserve"><g><path d="M2.38,2.62c0.001,0.079-0.031,0.144-0.063,0.176C2.027,3.085,1.608,2.86,1.416,2.57C1.351,2.441,1.287,2.28,1.254,2.12   c-0.032-0.258,0.064-0.483,0.128-0.7C1.428,1.312,1.443,1.25,1.47,1.187c0.021-0.057,0.055-0.115,0.103-0.173   c0,0-0.623,0.289-0.565,0.649c0.006,0.04,0.027,0.09,0.061,0.149c-0.071,0.597,0.347,1.37,1.023,1.273   c0.096-0.032,0.193-0.032,0.269-0.14C2.439,2.843,2.44,2.729,2.38,2.62z"/><path d="M2.477,2.676c0.226,0.28-0.128,0.57-0.385,0.602c-0.129,0-0.258,0.033-0.354,0C1.544,3.182,1.351,3.085,1.19,2.892   c-0.097-0.161-0.193-0.29-0.231-0.468C0.924,2.3,0.896,2.243,0.875,2.176C0.855,2.119,0.843,2.053,0.842,1.978   c0,0-0.29,0.622-0.013,0.86c0.03,0.026,0.079,0.052,0.159,0.129c0.363,0.504,1.264,0.793,1.65,0.15   c0.032-0.064,0.032-0.129,0.043-0.186C2.673,2.805,2.597,2.719,2.477,2.676z"/><path d="M2.589,2.655c0.018,0.011,0.082,0.011,0.114,0.043c0.322,0.257,0.096,0.644-0.161,0.837   c-0.225,0.129-0.483,0.161-0.74,0.129C1.608,3.632,1.448,3.568,1.294,3.467C1.186,3.393,1.118,3.355,1.059,3.316   c-0.053-0.03-0.104-0.073-0.153-0.13c0,0,0.179,0.662,0.545,0.667c0.04,0,0.093-0.011,0.212,0c0.622,0.102,1.459-0.22,1.362-0.96   C2.993,2.828,2.928,2.763,2.914,2.713C2.822,2.624,2.708,2.608,2.589,2.655z"/><path d="M2.658,2.566c0.27-0.157,0.528,0.132,0.56,0.39C3.25,3.278,3.089,3.568,2.832,3.793C2.735,3.89,2.606,3.922,2.478,3.986   c-0.096,0.032-0.161,0.032-0.26,0.047C2.086,4.049,2.002,4.061,1.934,4.07c-0.06,0.011-0.126,0.011-0.201-0.001   c0,0,0.563,0.391,0.846,0.159C2.609,4.202,2.642,4.159,2.74,4.09c0.575-0.296,0.961-1.102,0.414-1.617   C3.089,2.409,3.025,2.377,2.949,2.401C2.818,2.392,2.718,2.455,2.658,2.566z"/><path d="M2.653,2.455c0.211-0.335,0.662-0.207,0.79,0.083c0.064,0.129,0.161,0.226,0.161,0.354   c0.033,0.225-0.032,0.418-0.097,0.644C3.476,3.697,3.314,3.729,3.273,3.875C3.185,3.97,3.136,4.031,3.088,4.083   c-0.039,0.047-0.09,0.09-0.154,0.129c0,0,0.683-0.064,0.749-0.424C3.69,3.748,3.687,3.694,3.71,3.586   C3.926,3.085,3.797,2.312,3.218,2.12C3.057,2.087,2.896,2.023,2.779,2.144C2.669,2.22,2.63,2.332,2.653,2.455z"/><path d="M2.579,2.375C2.51,2.023,2.896,1.83,3.186,1.894c0.193,0.064,0.386,0.161,0.515,0.322c0.097,0.129,0.161,0.257,0.193,0.386   c0.064,0.161,0.129,0.322,0.086,0.485c-0.006,0.127,0.002,0.19-0.001,0.261c0,0.06-0.01,0.126-0.035,0.198   c0,0,0.48-0.49,0.299-0.807c-0.02-0.035-0.057-0.073-0.109-0.117c-0.143-0.631-0.916-1.21-1.527-0.76   c-0.064,0.064-0.097,0.129-0.12,0.19C2.448,2.181,2.485,2.293,2.579,2.375z"/><path d="M2.472,2.36C2.22,2.184,2.381,1.797,2.574,1.669C2.735,1.54,2.928,1.476,3.122,1.508C3.282,1.54,3.443,1.572,3.572,1.636   C3.733,1.766,3.926,1.83,4.024,2.023c0.072,0.09,0.12,0.133,0.163,0.189C4.226,2.258,4.26,2.315,4.288,2.386   c0,0,0.052-0.684-0.292-0.811c-0.037-0.014-0.09-0.019-0.158-0.018C3.379,1.283,2.703,1.186,2.317,1.636   C2.22,1.797,2.156,1.958,2.201,2.167C2.25,2.291,2.349,2.355,2.472,2.36z"/><path d="M2.379,2.416c-0.352-0.006-0.481-0.425-0.32-0.683c0.097-0.128,0.161-0.289,0.29-0.386c0.129-0.097,0.29-0.161,0.451-0.193   c0.193,0,0.387-0.032,0.575,0.019c0.106,0.02,0.17,0.022,0.239,0.037c0.06,0.01,0.123,0.032,0.189,0.068   c0,0-0.401-0.557-0.745-0.432C3.021,0.859,2.977,0.89,2.926,0.934C2.317,0.993,1.608,1.604,1.898,2.28   c0.033,0.064,0.097,0.129,0.154,0.16C2.167,2.504,2.282,2.49,2.379,2.416z"/><path d="M2.343,2.519C2.317,2.57,2.252,2.57,2.188,2.602C1.866,2.634,1.673,2.377,1.641,2.087C1.608,1.83,1.673,1.604,1.802,1.379   c0.129-0.193,0.322-0.322,0.521-0.442c0.094-0.054,0.145-0.093,0.207-0.125c0.052-0.031,0.115-0.055,0.188-0.07   c0,0-0.665-0.167-0.848,0.149C1.85,0.927,1.836,0.978,1.826,1.045C1.351,1.476,1.254,2.409,1.898,2.731   c0.065,0.032,0.161,0.032,0.218,0.02C2.242,2.725,2.318,2.64,2.343,2.519z"/></g><text x="0" y="20" fill="#000000" font-size="5px" font-weight="bold" font-family="'Helvetica Neue', Helvetica, Arial-Unicode, Arial, Sans-serif">Created by Alice Noir</text><text x="0" y="25" fill="#000000" font-size="5px" font-weight="bold" font-family="'Helvetica Neue', Helvetica, Arial-Unicode, Arial, Sans-serif">from the Noun Project</text></svg>