<svg xmlns="http://www.w3.org/2000/svg" xmlns:xlink="http://www.w3.org/1999/xlink" version="1.1" x="0px" y="0px" viewBox="0 0 5 6.25" enable-background="new 0 0 5 5" xml:space="preserve"><g><path d="M2.504,2.668c0,0-1.544,0.638-0.954,1.355c0,0-0.638-0.296-0.579-0.666C1.01,3.115,1.646,2.619,2.504,2.668z"/><path d="M2.404,2.614c0,0-1.592-0.507-1.604,0.421c0,0-0.297-0.637-0.014-0.882C0.974,1.992,1.781,2.024,2.404,2.614z"/><path d="M2.363,2.508c0,0-0.891-1.413-1.498-0.711c0,0,0.185-0.678,0.559-0.683C1.67,1.111,2.267,1.655,2.363,2.508z"/><path d="M2.4,2.401c0,0,0.229-1.655-0.688-1.509c0,0,0.578-0.4,0.867-0.163C2.771,0.886,2.876,1.687,2.4,2.401z"/><path d="M2.497,2.342c0,0,1.242-1.117,0.447-1.596c0,0,0.7,0.066,0.768,0.435C3.757,1.422,3.321,2.103,2.497,2.342z"/><path d="M2.609,2.36c0,0,1.669-0.053,1.37-0.932c0,0,0.492,0.501,0.308,0.827C4.165,2.469,3.394,2.708,2.609,2.36z"/><path d="M2.683,2.446c0,0,1.312,1.035,1.649,0.17c0,0,0.053,0.701-0.299,0.831C3.803,3.532,3.059,3.218,2.683,2.446z"/><path d="M2.685,2.56c0,0,0.335,1.636,1.15,1.193c0,0-0.411,0.57-0.763,0.442C2.841,4.111,2.474,3.392,2.685,2.56z"/><path d="M2.612,2.647c0,0-0.799,1.467,0.111,1.654c0,0-0.683,0.171-0.869-0.153C1.731,3.935,1.915,3.148,2.612,2.647z"/></g><text x="0" y="20" fill="#000000" font-size="5px" font-weight="bold" font-family="'Helvetica Neue', Helvetica, Arial-Unicode, Arial, Sans-serif">Created by Alice Noir</text><text x="0" y="25" fill="#000000" font-size="5px" font-weight="bold" font-family="'Helvetica Neue', Helvetica, Arial-Unicode, Arial, Sans-serif">from the Noun Project</text></svg>